<?xml version="1.0" encoding="utf-8"?>
<!-- Generator: Adobe Illustrator 23.0.0, SVG Export Plug-In . SVG Version: 6.00 Build 0)  -->
<svg version="1.1" id="Layer_1" xmlns="http://www.w3.org/2000/svg" x="0px"
     y="0px"
     viewBox="0 0 1000 1000" style="enable-background:new 0 0 1000 1000;" xml:space="preserve">
<style type="text/css">
	.st0{display:none;}
	.st1{display:inline;fill:#2C3E50;}
	.st2{display:inline;fill:#FFFFFF;}
	.st3{fill:#FFFFFF;stroke:#16A085;stroke-width:26;stroke-linecap:square;stroke-linejoin:round;}
	.st4{fill:#16A085;}
</style>
    <g class="st0">
	<path class="st1" d="M2434.5,975c-108.1,0-212.98-18.15-311.74-53.94c-95.49-34.61-181.28-84.18-254.98-147.33
		c-73.85-63.28-131.85-137.01-172.39-219.15C1653.33,469.37,1632,378.84,1632,285.5s21.33-183.87,63.39-269.08
		c40.55-82.14,98.55-155.87,172.39-219.15c73.7-63.15,159.49-112.72,254.98-147.33C2221.52-385.85,2326.4-404,2434.5-404
		s212.98,18.15,311.74,53.94c95.49,34.61,181.28,84.18,254.98,147.33c73.85,63.28,131.85,137.01,172.39,219.15
		c42.06,85.21,63.39,175.74,63.39,269.08s-21.33,183.87-63.39,269.08c-40.55,82.14-98.55,155.87-172.39,219.15
		c-73.7,63.15-159.49,112.72-254.98,147.33C2647.48,956.85,2542.6,975,2434.5,975z"/>
        <path class="st2" d="M2434.5-391c436.03,0,789.5,302.88,789.5,676.5S2870.53,962,2434.5,962S1645,659.12,1645,285.5
		S1998.47-391,2434.5-391 M2434.5-417c-109.61,0-215.99,18.41-316.17,54.72c-48.22,17.48-94.74,39.12-138.27,64.32
		c-43.18,25-83.8,53.72-120.74,85.37c-37.01,31.71-70.62,66.62-99.9,103.77c-29.64,37.59-55.1,77.79-75.69,119.5
		c-21.01,42.57-37.15,87.13-47.98,132.46c-11.12,46.54-16.75,94.45-16.75,142.38s5.64,95.83,16.75,142.38
		c10.82,45.32,26.97,89.89,47.98,132.46c20.59,41.71,46.05,81.92,75.69,119.5c29.29,37.14,62.9,72.06,99.9,103.77
		c36.93,31.65,77.55,60.37,120.74,85.36c43.53,25.2,90.05,46.84,138.27,64.32C2218.51,969.59,2324.89,988,2434.5,988
		s215.99-18.41,316.17-54.72c48.22-17.48,94.74-39.12,138.27-64.32c43.18-25,83.8-53.72,120.74-85.36
		c37.01-31.71,70.62-66.62,99.9-103.77c29.64-37.59,55.1-77.79,75.69-119.5c21.01-42.57,37.15-87.13,47.98-132.46
		c11.12-46.54,16.75-94.45,16.75-142.38s-5.64-95.83-16.75-142.38c-10.82-45.32-26.97-89.89-47.98-132.46
		c-20.59-41.71-46.05-81.92-75.69-119.5c-29.29-37.14-62.9-72.06-99.9-103.77c-36.93-31.65-77.55-60.37-120.74-85.37
		c-43.53-25.2-90.05-46.84-138.27-64.32C2650.49-398.59,2544.11-417,2434.5-417L2434.5-417z"/>
</g>
    <g>
	<path class="st3"
          d="M249.61,453.39l85.3-201.15h120.63L306.26,549.19v166.46H192.95V549.19L44,252.24h119.99L249.61,453.39z"/>
</g>
    <g>
	<path class="st4" d="M348.32,633.67c0-8.7,1.43-16.39,4.3-23.08s6.98-11.84,12.33-15.48c5.36-3.64,11.59-5.45,18.7-5.45
		c8.96,0,15.97,3.03,21.01,9.07l0.95-7.48h24.35v82.83c0,7.59-1.76,14.18-5.29,19.77c-3.53,5.59-8.63,9.9-15.32,12.89
		c-6.68,2.99-14.43,4.49-23.23,4.49c-6.31,0-12.43-1.19-18.34-3.58c-5.92-2.39-10.44-5.49-13.57-9.31l11.22-15.76
		c4.99,5.89,11.56,8.83,19.73,8.83c11.88,0,17.82-6.1,17.82-18.3v-2.71c-5.15,5.68-11.64,8.52-19.49,8.52
		c-10.5,0-18.99-4.02-25.46-12.06c-6.47-8.03-9.71-18.79-9.71-32.26V633.67z M375.21,635.34c0,7.05,1.33,12.64,3.98,16.75
		c2.65,4.11,6.37,6.17,11.14,6.17c5.78,0,10-1.94,12.65-5.81v-36.2c-2.6-3.93-6.76-5.89-12.49-5.89c-4.77,0-8.51,2.14-11.22,6.41
		S375.21,627.22,375.21,635.34z"/>
        <path class="st4" d="M442.05,633.67c0-8.7,1.43-16.39,4.3-23.08s6.98-11.84,12.33-15.48c5.36-3.64,11.59-5.45,18.7-5.45
		c8.96,0,15.97,3.03,21.01,9.07l0.95-7.48h24.35v82.83c0,7.59-1.76,14.18-5.29,19.77s-8.63,9.9-15.32,12.89
		c-6.68,2.99-14.43,4.49-23.23,4.49c-6.31,0-12.43-1.19-18.34-3.58c-5.92-2.39-10.44-5.49-13.57-9.31l11.22-15.76
		c4.99,5.89,11.56,8.83,19.73,8.83c11.88,0,17.82-6.1,17.82-18.3v-2.71c-5.15,5.68-11.64,8.52-19.49,8.52
		c-10.5,0-18.99-4.02-25.46-12.06c-6.47-8.03-9.71-18.79-9.71-32.26V633.67z M468.95,635.34c0,7.05,1.33,12.64,3.98,16.75
		c2.65,4.11,6.37,6.17,11.14,6.17c5.78,0,10-1.94,12.65-5.81v-36.2c-2.6-3.93-6.76-5.89-12.49-5.89c-4.77,0-8.51,2.14-11.22,6.41
		S468.95,627.22,468.95,635.34z"/>
        <path class="st4" d="M535.55,633.67c0-13.63,2.94-24.38,8.83-32.23c5.89-7.85,14.11-11.78,24.67-11.78
		c7.69,0,14.16,3.03,19.42,9.07v-43.6h26.89v122.22h-24.11l-1.35-9.23c-5.52,7.21-12.52,10.82-21.01,10.82
		c-10.24,0-18.35-3.93-24.35-11.78S535.55,648.15,535.55,633.67z M562.36,635.34c0,15.28,4.46,22.92,13.37,22.92
		c5.94,0,10.18-2.5,12.73-7.48v-32.78c-2.44-5.09-6.63-7.64-12.57-7.64c-8.28,0-12.76,6.68-13.45,20.05L562.36,635.34z"/>
        <path class="st4" d="M682.67,615.53l-8.83-0.64c-8.43,0-13.85,2.65-16.23,7.96v54.51h-26.82v-86.1h25.14l0.88,11.06
		c4.51-8.43,10.8-12.65,18.86-12.65c2.86,0,5.36,0.32,7.48,0.95L682.67,615.53z"/>
        <path class="st4" d="M738.45,677.36c-0.95-1.75-1.8-4.33-2.55-7.72c-4.93,6.21-11.83,9.31-20.69,9.31
		c-8.12,0-15.01-2.45-20.69-7.36c-5.68-4.91-8.51-11.07-8.51-18.5c0-9.34,3.45-16.39,10.34-21.17c6.9-4.77,16.92-7.16,30.08-7.16
		h8.28v-4.56c0-7.94-3.42-11.91-10.26-11.91c-6.37,0-9.55,3.14-9.55,9.44h-26.82c0-8.32,3.54-15.08,10.62-20.27
		c7.08-5.19,16.11-7.79,27.09-7.79c10.98,0,19.65,2.68,26.02,8.04s9.63,12.71,9.79,22.04v38.11c0.11,7.9,1.33,13.95,3.66,18.14v1.35
		H738.45z M721.66,659.85c3.34,0,6.11-0.72,8.32-2.15c2.2-1.43,3.78-3.05,4.73-4.85v-13.77h-7.8c-9.34,0-14,4.19-14,12.57
		c0,2.44,0.82,4.41,2.47,5.93C717.02,659.09,719.12,659.85,721.66,659.85z"/>
        <path class="st4" d="M821.52,653.17c0-2.28-1.19-4.11-3.58-5.49c-2.39-1.38-6.92-2.81-13.61-4.3c-6.68-1.49-12.2-3.43-16.55-5.85
		c-4.35-2.41-7.67-5.34-9.95-8.79c-2.28-3.45-3.42-7.4-3.42-11.85c0-7.91,3.26-14.41,9.79-19.54c6.52-5.12,15.07-7.68,25.62-7.68
		c11.35,0,20.48,2.57,27.37,7.72c6.9,5.15,10.34,11.91,10.34,20.29h-26.89c0-6.9-3.63-10.34-10.9-10.34c-2.81,0-5.17,0.78-7.08,2.35
		c-1.91,1.56-2.86,3.51-2.86,5.85c0,2.39,1.17,4.33,3.5,5.81c2.33,1.49,6.06,2.7,11.18,3.66c5.12,0.95,9.62,2.1,13.49,3.42
		c12.94,4.46,19.42,12.44,19.42,23.95c0,7.85-3.49,14.24-10.46,19.18s-16.01,7.4-27.09,7.4c-7.37,0-13.95-1.33-19.73-3.98
		c-5.78-2.65-10.29-6.26-13.53-10.82c-3.24-4.56-4.85-9.36-4.85-14.4h25.06c0.11,3.98,1.43,6.88,3.98,8.71
		c2.55,1.83,5.81,2.74,9.79,2.74c3.66,0,6.41-0.74,8.23-2.23C820.61,657.49,821.52,655.55,821.52,653.17z"/>
        <path class="st4" d="M888.2,677.36h-26.89v-86.1h26.89V677.36z"/>
        <path class="st4" d="M933,677.36h-26.89V555.14H933V677.36z"/>
        <circle class="st4" cx="875.1" cy="567.1" r="16.3"/>
</g>
</svg>
