<?xml version="1.0" encoding="utf-8"?>
<!-- Generator: Adobe Illustrator 23.0.0, SVG Export Plug-In . SVG Version: 6.00 Build 0)  -->
<svg version="1.1" id="Layer_1" xmlns="http://www.w3.org/2000/svg" x="0px"
     y="0px"
     viewBox="0 0 1000 1000" style="enable-background:new 0 0 1000 1000;" xml:space="preserve">
<style type="text/css">
	.st0{display:none;}
	.st1{display:inline;fill:#2C3E50;}
	.st2{display:inline;fill:#FFFFFF;}
	.st3{fill:#FFFFFF;}
	.st4{fill:#2C3E50;}
	.st5{fill:#FFFFFF;stroke:#16A085;stroke-width:26;stroke-linecap:square;stroke-linejoin:round;}
	.st6{fill:#16A085;}
</style>
    <g class="st0">
	<path class="st1" d="M494.5,1220c-108.1,0-212.98-18.15-311.74-53.94c-95.49-34.61-181.28-84.18-254.98-147.33
		c-73.85-63.28-131.85-137.01-172.39-219.15C-286.67,714.37-308,623.84-308,530.5s21.33-183.87,63.39-269.08
		c40.55-82.14,98.55-155.87,172.39-219.15C1.48-20.88,87.27-70.45,182.76-105.06C281.52-140.85,386.4-159,494.5-159
		s212.98,18.15,311.74,53.94c95.49,34.61,181.28,84.18,254.98,147.33c73.85,63.28,131.85,137.01,172.39,219.15
		c42.06,85.21,63.39,175.74,63.39,269.08s-21.33,183.87-63.39,269.08c-40.55,82.14-98.55,155.87-172.39,219.15
		c-73.7,63.15-159.49,112.72-254.98,147.33C707.48,1201.85,602.6,1220,494.5,1220z"/>
        <path class="st2" d="M494.5-146c436.03,0,789.5,302.88,789.5,676.5S930.53,1207,494.5,1207S-295,904.12-295,530.5
		S58.47-146,494.5-146 M494.5-172c-109.61,0-215.99,18.41-316.17,54.72C130.11-99.81,83.59-78.17,40.06-52.97
		c-43.18,25-83.8,53.72-120.74,85.36c-37.01,31.71-70.62,66.62-99.9,103.77c-29.64,37.59-55.1,77.79-75.69,119.5
		c-21.01,42.57-37.15,87.13-47.98,132.46C-315.36,434.67-321,482.57-321,530.5s5.64,95.83,16.75,142.38
		c10.82,45.32,26.97,89.89,47.98,132.46c20.59,41.71,46.05,81.92,75.69,119.5c29.29,37.14,62.9,72.06,99.9,103.77
		c36.93,31.65,77.55,60.37,120.74,85.36c43.53,25.2,90.05,46.84,138.27,64.32C278.51,1214.59,384.89,1233,494.5,1233
		s215.99-18.41,316.17-54.72c48.22-17.48,94.74-39.12,138.27-64.32c43.18-25,83.8-53.72,120.74-85.36
		c37.01-31.71,70.62-66.62,99.91-103.77c29.64-37.59,55.1-77.79,75.69-119.5c21.01-42.57,37.15-87.13,47.98-132.46
		c11.12-46.54,16.75-94.45,16.75-142.38s-5.64-95.83-16.75-142.38c-10.82-45.32-26.97-89.89-47.98-132.46
		c-20.59-41.71-46.05-81.92-75.69-119.5c-29.29-37.14-62.9-72.06-99.91-103.77c-36.93-31.65-77.55-60.37-120.74-85.36
		c-43.53-25.2-90.05-46.84-138.27-64.32C710.49-153.59,604.11-172,494.5-172L494.5-172z"/>
</g>
    <g>
	<g>
		<path class="st3" d="M473.08,629.45c-9.88,0-19.65-1.53-29.05-4.54c-33.16-10.63-49.65-35.48-55.21-45.66
			c-2.06-3.78-2.12-8.34-0.15-12.17l15.25-29.63c1.79-3.47,5.03-5.95,8.85-6.77c5.87-1.25,12.4-1.91,18.9-1.91
			c12.85,0,32.12,2.62,50.94,15.09c31.22,20.68,38.45,52.96,39.92,62.36c0.89,5.66-2.04,11.24-7.2,13.72
			C507.98,623.5,492.7,629.45,473.08,629.45C473.09,629.45,473.09,629.45,473.08,629.45z"/>
        <path class="st4" d="M431.68,541.77c11.69,0,27.91,2.43,43.76,12.93c28.29,18.74,33.5,48.69,34.26,53.54
			c-3.79,1.83-17.77,8.22-36.62,8.22c-7.67,0-16.16-1.06-25.08-3.92c-30.92-9.92-44.94-34.34-47.76-39.51
			c5.08-9.88,10.16-19.75,15.25-29.63C417.57,542.95,423.52,541.77,431.68,541.77 M431.68,515.77c-7.4,0-14.87,0.76-21.61,2.2
			c-7.63,1.63-14.13,6.59-17.7,13.53l-6.94,13.48l-8.31,16.15c-3.94,7.66-3.83,16.78,0.29,24.34c6.3,11.56,25.02,39.75,62.65,51.82
			c10.69,3.43,21.8,5.17,33.02,5.17c22.2,0,39.54-6.76,47.91-10.79c10.32-4.98,16.17-16.12,14.4-27.45
			c-1.68-10.73-9.94-47.56-45.58-71.18C472.76,521.74,452.66,515.77,431.68,515.77L431.68,515.77z"/>
	</g>
</g>
    <g>
	<g>
		<path class="st3" d="M527.4,513.44c-9.88,0-19.65-1.53-29.05-4.54c-33.16-10.63-49.65-35.48-55.21-45.67
			c-2.06-3.78-2.12-8.34-0.15-12.17l15.25-29.63c1.79-3.47,5.03-5.95,8.85-6.77c5.87-1.25,12.4-1.91,18.9-1.91
			c12.85,0,32.12,2.62,50.94,15.09c31.22,20.68,38.45,52.96,39.92,62.36c0.89,5.66-2.04,11.23-7.2,13.72
			C562.3,507.48,547.02,513.44,527.4,513.44C527.41,513.44,527.41,513.44,527.4,513.44z"/>
        <path class="st4" d="M486,425.75c11.69,0,27.91,2.43,43.76,12.93c28.29,18.74,33.5,48.69,34.26,53.54
			c-3.79,1.83-17.77,8.22-36.62,8.22c-7.67,0-16.16-1.06-25.08-3.92c-30.92-9.92-44.94-34.34-47.76-39.51
			c5.08-9.88,10.16-19.75,15.25-29.63C471.89,426.93,477.84,425.75,486,425.75 M486,399.75c-7.4,0-14.87,0.76-21.61,2.2
			c-7.63,1.63-14.13,6.59-17.7,13.53l-8.71,16.93l-6.53,12.7c-3.94,7.66-3.83,16.78,0.29,24.34c6.3,11.56,25.02,39.75,62.65,51.82
			c10.69,3.43,21.8,5.17,33.02,5.17c22.2,0,39.54-6.76,47.91-10.79c10.32-4.98,16.17-16.12,14.4-27.45
			c-1.68-10.73-9.94-47.56-45.58-71.18C527.08,405.72,506.98,399.75,486,399.75L486,399.75z"/>
	</g>
</g>
    <g>
	<g>
		<path class="st3" d="M557.41,391.15c-27.96,0-48.52-12.47-56.06-17.84c-3.51-2.5-5.56-6.57-5.46-10.88l0.73-33.31
			c0.09-3.9,1.92-7.55,4.99-9.96c7.51-5.87,28.08-19.53,56.74-19.53c3.93,0,7.9,0.26,11.82,0.78c37.12,4.92,57.76,30.76,63.21,38.57
			c3.28,4.7,3.09,10.99-0.46,15.49c-7.17,9.08-27.56,30.75-61.93,35.7C566.48,390.82,561.92,391.15,557.41,391.15
			C557.41,391.15,557.41,391.15,557.41,391.15z"/>
        <path class="st4" d="M558.34,312.63c3.25,0,6.63,0.21,10.11,0.67c33.64,4.46,51.44,29.09,54.25,33.11
			c-3.66,4.64-21.53,26.27-53.58,30.89c-4.05,0.58-7.96,0.84-11.72,0.84c-26,0-44.33-12.45-48.53-15.43
			c0.24-11.1,0.48-22.21,0.72-33.31C513.25,326.55,531.72,312.63,558.34,312.63 M558.34,286.63c-32.7,0-56.17,15.59-64.75,22.29
			c-6.15,4.81-9.81,12.12-9.98,19.92l-0.36,16.66l-0.36,16.66c-0.19,8.61,3.9,16.76,10.93,21.75c8.56,6.09,31.89,20.24,63.59,20.24
			c5.13,0,10.32-0.37,15.43-1.11c39.01-5.62,62.14-30.21,70.28-40.52c7.1-9,7.47-21.58,0.92-30.98
			c-6.21-8.91-29.77-38.4-72.16-44.02C567.38,286.93,562.83,286.63,558.34,286.63L558.34,286.63z"/>
	</g>
</g>
    <g>
	<g>
		<path class="st3" d="M468.99,298.69c-2.31,0-4.62-0.62-6.66-1.84l-28.61-17.08c-3.35-2-5.62-5.4-6.2-9.26
			c-1.33-8.97-3.99-40.43,17.55-68.88c22.61-29.85,55.27-35.04,64.75-35.92c0.4-0.04,0.81-0.06,1.21-0.06
			c5.24,0,10.03,3.17,12.04,8.1c4.36,10.72,13.13,39.14,0.47,71.48c-12.7,32.42-38.53,47.33-49.05,52.23
			C472.73,298.29,470.86,298.69,468.99,298.69z"/>
        <path class="st4" d="M511.02,178.66c2.23,5.48,12.21,31.7,0.4,61.84c-11.84,30.24-37.09,42.7-42.43,45.18
			c-9.54-5.69-19.07-11.39-28.61-17.08c-0.76-5.14-4.43-33.39,15.05-59.13C475.92,182.44,506.13,179.12,511.02,178.66
			 M511.03,152.66c-0.8,0-1.6,0.04-2.41,0.11c-10.81,1-48.09,6.93-73.91,41.02c-23.93,31.6-21.99,65.52-20.04,78.63
			c1.14,7.72,5.69,14.51,12.39,18.51l13,7.76l15.61,9.32c4.09,2.44,8.7,3.68,13.33,3.68c3.74,0,7.49-0.81,10.98-2.43
			c11.93-5.56,41.25-22.47,55.66-59.27c14.37-36.7,4.42-68.96-0.53-81.12C531.09,159.01,521.52,152.66,511.03,152.66L511.03,152.66z
			"/>
	</g>
</g>
    <g>
	<g>
		<path class="st3" d="M339.01,284.09c-3.17,0-6.25-1.16-8.65-3.3c-6.77-6.03-28.97-28.48-30.67-64.12
			c-1.78-37.4,19.98-62.32,26.69-69.07c2.5-2.52,5.84-3.83,9.22-3.83c2.08,0,4.18,0.5,6.1,1.52c10.22,5.44,35.17,21.64,46.17,54.58
			c11.03,33.03,0.75,61.02-4.18,71.52c-1.83,3.9-5.48,6.64-9.73,7.31l-32.91,5.22C340.37,284.04,339.69,284.09,339.01,284.09z"/>
        <path class="st4" d="M335.6,156.77c5.22,2.78,29.69,16.51,39.94,47.22c10.29,30.8-1.12,56.55-3.62,61.88
			c-10.97,1.74-21.94,3.48-32.91,5.22c-3.88-3.46-24.8-22.79-26.33-55.04C311.07,182.16,332.14,160.25,335.6,156.77 M335.61,130.77
			c-6.76,0-13.44,2.63-18.44,7.67c-7.66,7.7-32.48,36.14-30.46,78.85c1.88,39.59,25.1,64.39,35,73.21c4.8,4.28,10.97,6.59,17.3,6.59
			c1.36,0,2.72-0.11,4.08-0.32l14.56-2.31l18.35-2.91c8.51-1.35,15.8-6.83,19.46-14.63c5.6-11.92,17.26-43.69,4.75-81.17
			c-12.48-37.38-40.8-55.77-52.39-61.94C343.96,131.77,339.77,130.77,335.61,130.77L335.61,130.77z"/>
	</g>
</g>
    <g>
	<g>
		<path class="st3" d="M254.6,344.9c-13.07,0-38.33-2.88-60.71-22.2c-28.35-24.47-31.43-57.4-31.7-66.91
			c-0.16-5.73,3.44-10.89,8.88-12.7c6.64-2.22,17.37-4.86,30.74-4.86c14.23,0,27.9,3.02,40.63,8.97
			c31.55,14.75,44.76,41.48,48.98,52.29c1.57,4.01,1.04,8.54-1.4,12.09l-18.87,27.46c-2.21,3.21-5.75,5.27-9.63,5.59
			C259.25,344.81,256.99,344.9,254.6,344.9C254.6,344.9,254.6,344.9,254.6,344.9z"/>
        <path class="st4" d="M201.8,251.23c10.23,0,22.44,1.82,35.12,7.75c29.42,13.75,40.24,39.75,42.38,45.24
			c-6.29,9.15-12.58,18.31-18.87,27.46c-1.06,0.09-3.07,0.23-5.83,0.23c-10.77,0-32.76-2.25-52.21-19.04
			c-25.69-22.17-27.07-52.54-27.21-57.44C178.37,254.36,188.38,251.23,201.8,251.23 M201.8,225.23c-15.12,0-27.3,3.01-34.86,5.53
			c-10.87,3.63-18.08,13.95-17.76,25.4c0.31,10.85,3.84,48.44,36.21,76.38c25.56,22.06,54.33,25.36,69.2,25.36
			c2.75,0,5.36-0.11,7.99-0.32c7.78-0.65,14.85-4.75,19.27-11.18l8.9-12.95l9.97-14.5c4.88-7.1,5.93-16.16,2.79-24.18
			c-4.79-12.27-19.79-42.6-55.59-59.34C233.47,228.66,217.95,225.23,201.8,225.23L201.8,225.23z"/>
	</g>
</g>
    <g>
	<path class="st5"
          d="M247.61,542.39l85.3-201.15h120.63L304.26,638.19v166.46H190.95V638.19L42,341.24h119.99L247.61,542.39z"/>
</g>
    <g>
	<path class="st6" d="M346.32,722.67c0-8.7,1.43-16.39,4.3-23.08s6.98-11.84,12.33-15.48c5.36-3.64,11.59-5.45,18.7-5.45
		c8.96,0,15.97,3.03,21.01,9.07l0.95-7.48h24.35v82.83c0,7.59-1.76,14.18-5.29,19.77c-3.53,5.59-8.63,9.9-15.32,12.89
		c-6.68,2.99-14.43,4.49-23.23,4.49c-6.31,0-12.43-1.19-18.34-3.58c-5.92-2.39-10.44-5.49-13.57-9.31l11.22-15.76
		c4.99,5.89,11.56,8.83,19.73,8.83c11.88,0,17.82-6.1,17.82-18.3v-2.71c-5.15,5.68-11.64,8.52-19.49,8.52
		c-10.5,0-18.99-4.02-25.46-12.06c-6.47-8.03-9.71-18.79-9.71-32.26V722.67z M373.21,724.34c0,7.05,1.33,12.64,3.98,16.75
		c2.65,4.11,6.37,6.17,11.14,6.17c5.78,0,10-1.94,12.65-5.81v-36.2c-2.6-3.93-6.76-5.89-12.49-5.89c-4.77,0-8.51,2.14-11.22,6.41
		S373.21,716.22,373.21,724.34z"/>
        <path class="st6" d="M440.05,722.67c0-8.7,1.43-16.39,4.3-23.08s6.98-11.84,12.33-15.48c5.36-3.64,11.59-5.45,18.7-5.45
		c8.96,0,15.97,3.03,21.01,9.07l0.95-7.48h24.35v82.83c0,7.59-1.76,14.18-5.29,19.77s-8.63,9.9-15.32,12.89
		c-6.68,2.99-14.43,4.49-23.23,4.49c-6.31,0-12.43-1.19-18.34-3.58c-5.92-2.39-10.44-5.49-13.57-9.31l11.22-15.76
		c4.99,5.89,11.56,8.83,19.73,8.83c11.88,0,17.82-6.1,17.82-18.3v-2.71c-5.15,5.68-11.64,8.52-19.49,8.52
		c-10.5,0-18.99-4.02-25.46-12.06c-6.47-8.03-9.71-18.79-9.71-32.26V722.67z M466.95,724.34c0,7.05,1.33,12.64,3.98,16.75
		c2.65,4.11,6.37,6.17,11.14,6.17c5.78,0,10-1.94,12.65-5.81v-36.2c-2.6-3.93-6.76-5.89-12.49-5.89c-4.77,0-8.51,2.14-11.22,6.41
		S466.95,716.22,466.95,724.34z"/>
        <path class="st6" d="M533.55,722.67c0-13.63,2.94-24.38,8.83-32.23c5.89-7.85,14.11-11.78,24.67-11.78
		c7.69,0,14.16,3.03,19.42,9.07v-43.6h26.89v122.22h-24.11l-1.35-9.23c-5.52,7.21-12.52,10.82-21.01,10.82
		c-10.24,0-18.35-3.93-24.35-11.78S533.55,737.15,533.55,722.67z M560.36,724.34c0,15.28,4.46,22.92,13.37,22.92
		c5.94,0,10.18-2.5,12.73-7.48v-32.78c-2.44-5.09-6.63-7.64-12.57-7.64c-8.28,0-12.76,6.68-13.45,20.05L560.36,724.34z"/>
        <path class="st6" d="M680.67,704.53l-8.83-0.64c-8.43,0-13.85,2.65-16.23,7.96v54.51h-26.82v-86.1h25.14l0.88,11.06
		c4.51-8.43,10.8-12.65,18.86-12.65c2.86,0,5.36,0.32,7.48,0.95L680.67,704.53z"/>
        <path class="st6" d="M736.45,766.36c-0.95-1.75-1.8-4.33-2.55-7.72c-4.93,6.21-11.83,9.31-20.69,9.31
		c-8.12,0-15.01-2.45-20.69-7.36c-5.68-4.91-8.51-11.07-8.51-18.5c0-9.34,3.45-16.39,10.34-21.17c6.9-4.77,16.92-7.16,30.08-7.16
		h8.28v-4.56c0-7.94-3.42-11.91-10.26-11.91c-6.37,0-9.55,3.14-9.55,9.44h-26.82c0-8.32,3.54-15.08,10.62-20.27
		c7.08-5.19,16.11-7.79,27.09-7.79c10.98,0,19.65,2.68,26.02,8.04s9.63,12.71,9.79,22.04v38.11c0.11,7.9,1.33,13.95,3.66,18.14v1.35
		H736.45z M719.66,748.85c3.34,0,6.11-0.72,8.32-2.15c2.2-1.43,3.78-3.05,4.73-4.85v-13.77h-7.8c-9.34,0-14,4.19-14,12.57
		c0,2.44,0.82,4.41,2.47,5.93C715.02,748.09,717.12,748.85,719.66,748.85z"/>
        <path class="st6" d="M819.52,742.17c0-2.28-1.19-4.11-3.58-5.49c-2.39-1.38-6.92-2.81-13.61-4.3c-6.68-1.49-12.2-3.43-16.55-5.85
		c-4.35-2.41-7.67-5.34-9.95-8.79c-2.28-3.45-3.42-7.4-3.42-11.85c0-7.91,3.26-14.41,9.79-19.54c6.52-5.12,15.07-7.68,25.62-7.68
		c11.35,0,20.48,2.57,27.37,7.72c6.9,5.15,10.34,11.91,10.34,20.29h-26.89c0-6.9-3.63-10.34-10.9-10.34c-2.81,0-5.17,0.78-7.08,2.35
		c-1.91,1.56-2.86,3.51-2.86,5.85c0,2.39,1.17,4.33,3.5,5.81c2.33,1.49,6.06,2.7,11.18,3.66c5.12,0.95,9.62,2.1,13.49,3.42
		c12.94,4.46,19.42,12.44,19.42,23.95c0,7.85-3.49,14.24-10.46,19.18s-16.01,7.4-27.09,7.4c-7.37,0-13.95-1.33-19.73-3.98
		c-5.78-2.65-10.29-6.26-13.53-10.82c-3.24-4.56-4.85-9.36-4.85-14.4h25.06c0.11,3.98,1.43,6.88,3.98,8.71
		c2.55,1.83,5.81,2.74,9.79,2.74c3.66,0,6.41-0.74,8.23-2.23C818.61,746.49,819.52,744.55,819.52,742.17z"/>
        <path class="st6" d="M886.2,766.36h-26.89v-86.1h26.89V766.36z"/>
        <path class="st6" d="M931,766.36h-26.89V644.14H931V766.36z"/>
        <circle class="st6" cx="873.1" cy="656.1" r="16.3"/>
</g>
</svg>
