<?xml version="1.0" encoding="utf-8"?>
<!-- Generator: Adobe Illustrator 23.0.0, SVG Export Plug-In . SVG Version: 6.00 Build 0)  -->
<svg version="1.1" id="Layer_1" xmlns="http://www.w3.org/2000/svg" xmlns:xlink="http://www.w3.org/1999/xlink" x="0px" y="0px"
	 viewBox="0 0 1000 1000" style="enable-background:new 0 0 1000 1000;" xml:space="preserve">
<style type="text/css">
	.st0{display:none;}
	.st1{display:inline;fill:#2C3E50;}
	.st2{display:inline;fill:#FFFFFF;}
	.st3{fill:#FFFFFF;}
	.st4{fill:#FFFFFF;stroke:#FFFFFF;stroke-width:13;stroke-linecap:round;stroke-linejoin:round;stroke-miterlimit:10;}
	.st5{fill:#FFFFFF;stroke:#FFFFFF;stroke-width:0.25;stroke-miterlimit:10;}
</style>
<g class="st0">
	<path class="st1" d="M2234.5,1457c-108.1,0-212.98-18.15-311.74-53.94c-95.49-34.61-181.28-84.18-254.98-147.33
		c-73.85-63.28-131.85-137.01-172.39-219.15C1453.33,951.37,1432,860.84,1432,767.5s21.33-183.87,63.39-269.08
		c40.55-82.14,98.55-155.87,172.39-219.15c73.7-63.15,159.49-112.72,254.98-147.33C2021.52,96.15,2126.4,78,2234.5,78
		s212.98,18.15,311.74,53.94c95.49,34.61,181.28,84.18,254.98,147.33c73.85,63.28,131.85,137.01,172.39,219.15
		c42.06,85.21,63.39,175.74,63.39,269.08s-21.33,183.87-63.39,269.08c-40.55,82.14-98.55,155.87-172.39,219.15
		c-73.7,63.15-159.49,112.72-254.98,147.33C2447.48,1438.85,2342.6,1457,2234.5,1457z"/>
	<path class="st2" d="M2234.5,91c436.03,0,789.5,302.88,789.5,676.5S2670.53,1444,2234.5,1444S1445,1141.12,1445,767.5
		S1798.47,91,2234.5,91 M2234.5,65c-109.61,0-215.99,18.41-316.17,54.72c-48.22,17.48-94.74,39.12-138.27,64.32
		c-43.18,25-83.8,53.72-120.74,85.36c-37.01,31.71-70.62,66.62-99.9,103.77c-29.64,37.59-55.1,77.79-75.69,119.5
		c-21.01,42.57-37.15,87.13-47.98,132.46c-11.12,46.54-16.75,94.45-16.75,142.38s5.64,95.83,16.75,142.38
		c10.82,45.32,26.97,89.89,47.98,132.46c20.59,41.71,46.05,81.92,75.69,119.5c29.29,37.14,62.9,72.06,99.9,103.77
		c36.93,31.65,77.55,60.37,120.74,85.36c43.53,25.2,90.05,46.84,138.27,64.32c100.18,36.31,206.56,54.72,316.17,54.72
		s215.99-18.41,316.17-54.72c48.22-17.48,94.74-39.12,138.27-64.32c43.18-25,83.8-53.72,120.74-85.36
		c37.01-31.71,70.62-66.62,99.9-103.77c29.64-37.59,55.1-77.79,75.69-119.5c21.01-42.57,37.15-87.13,47.98-132.46
		c11.12-46.54,16.75-94.45,16.75-142.38s-5.64-95.83-16.75-142.38c-10.82-45.32-26.97-89.89-47.98-132.46
		c-20.59-41.71-46.05-81.92-75.69-119.5c-29.29-37.14-62.9-72.06-99.9-103.77c-36.93-31.65-77.55-60.37-120.74-85.36
		c-43.53-25.2-90.05-46.84-138.27-64.32C2450.49,83.41,2344.11,65,2234.5,65L2234.5,65z"/>
</g>
<g>
	<g>
		<path class="st3" d="M481.09,613.95c-9.2,0-18.31-1.43-27.07-4.23c-30.92-9.92-46.31-33.09-51.48-42.59l-1.65-3.02l18.23-35.43
			l3.01-0.64c5.43-1.16,11.5-1.77,17.55-1.77c11.96,0,29.88,2.43,47.35,14.01c29,19.22,35.72,49.21,37.09,57.95l0.75,4.77l-4.35,2.1
			C513.66,608.4,499.41,613.95,481.09,613.95C481.09,613.95,481.09,613.95,481.09,613.95z"/>
		<path class="st3" d="M439.68,532.77c11.69,0,27.91,2.43,43.76,12.93c28.29,18.74,33.5,48.69,34.26,53.54
			c-3.79,1.83-17.77,8.22-36.62,8.22c-7.67,0-16.16-1.06-25.08-3.92c-30.92-9.92-44.94-34.34-47.76-39.51
			c5.08-9.88,10.16-19.75,15.25-29.63C425.57,533.95,431.52,532.77,439.68,532.77 M439.68,519.77c-6.5,0-13.04,0.66-18.9,1.91
			l-6.03,1.29l-2.82,5.48l-7.37,14.33l-7.87,15.3l-3.15,6.12l3.3,6.05c5.55,10.19,22.05,35.03,55.21,45.66
			c9.4,3.02,19.18,4.54,29.05,4.54c19.61,0,34.9-5.96,42.26-9.51l8.69-4.19l-1.49-9.53c-1.47-9.4-8.71-41.68-39.92-62.36
			C471.79,522.39,452.53,519.77,439.68,519.77L439.68,519.77z"/>
	</g>
</g>
<g>
	<g>
		<path class="st3" d="M535.41,506.94c-9.2,0-18.31-1.42-27.07-4.23c-30.92-9.92-46.31-33.09-51.49-42.59l-1.65-3.02l18.23-35.43
			l3.01-0.64c5.43-1.16,11.5-1.77,17.55-1.77c11.95,0,29.87,2.43,47.35,14.01c29,19.22,35.72,49.21,37.09,57.95l0.75,4.77l-4.35,2.1
			C567.98,501.38,553.73,506.94,535.41,506.94C535.41,506.94,535.41,506.94,535.41,506.94z"/>
		<path class="st3" d="M494,425.75c11.69,0,27.91,2.43,43.76,12.93c28.29,18.74,33.5,48.69,34.26,53.54
			c-3.79,1.83-17.77,8.22-36.62,8.22c-7.67,0-16.16-1.06-25.08-3.92c-30.92-9.92-44.94-34.34-47.76-39.51
			c5.08-9.88,10.16-19.75,15.25-29.63C479.89,426.93,485.84,425.75,494,425.75 M494,412.75c-6.5,0-13.04,0.66-18.9,1.91l-6.03,1.29
			l-2.82,5.48l-7.87,15.3L451,451.06l-3.15,6.12l3.3,6.05c5.55,10.19,22.05,35.03,55.21,45.66c9.4,3.02,19.18,4.54,29.05,4.54
			c19.61,0,34.9-5.96,42.26-9.51l8.69-4.19l-1.49-9.53c-1.47-9.4-8.71-41.68-39.92-62.36C526.11,415.37,506.85,412.75,494,412.75
			L494,412.75z"/>
	</g>
</g>
<g>
	<g>
		<path class="st3" d="M557.41,384.65c-26.09,0-45.26-11.63-52.29-16.63l-2.81-2l0.87-39.84l2.43-1.9
			c6.98-5.46,26.09-18.15,52.74-18.15c3.64,0,7.33,0.24,10.97,0.73c34.49,4.57,53.67,28.59,58.73,35.84l2.76,3.96l-2.99,3.79
			c-6.69,8.47-25.7,28.68-57.75,33.3C565.86,384.34,561.61,384.65,557.41,384.65C557.41,384.65,557.41,384.65,557.41,384.65z"/>
		<path class="st3" d="M558.34,312.63c3.25,0,6.63,0.21,10.11,0.67c33.64,4.46,51.44,29.09,54.25,33.11
			c-3.66,4.64-21.53,26.27-53.58,30.89c-4.05,0.58-7.96,0.84-11.72,0.84c-26,0-44.33-12.45-48.53-15.43
			c0.24-11.1,0.48-22.21,0.72-33.31C513.25,326.55,531.72,312.63,558.34,312.63 M558.34,299.63c-28.66,0-49.23,13.66-56.74,19.53
			l-4.86,3.8l-0.13,6.16l-0.34,15.56l-0.39,17.75l-0.15,6.89l5.61,3.99c7.54,5.36,28.1,17.84,56.06,17.84
			c4.51,0,9.08-0.33,13.57-0.98c34.38-4.95,54.76-26.62,61.93-35.7l5.98-7.57l-5.52-7.91c-5.44-7.8-26.09-33.65-63.21-38.57
			C566.24,299.89,562.26,299.63,558.34,299.63L558.34,299.63z"/>
	</g>
</g>
<g>
	<g>
		<path class="st3" d="M434.4,272.62l-0.45-3.05c-1.23-8.33-3.71-37.58,16.3-64c21-27.73,51.36-32.56,60.17-33.37l4.8-0.45
			l1.82,4.47c4.07,10,12.25,36.5,0.44,66.66c-11.84,30.24-35.93,44.14-45.74,48.71l-3.12,1.45L434.4,272.62z"/>
		<path class="st3" d="M511.01,178.66c2.23,5.48,12.21,31.7,0.4,61.84c-11.84,30.24-37.09,42.7-42.43,45.18
			c-9.54-5.69-19.07-11.39-28.61-17.08c-0.76-5.14-4.43-33.39,15.05-59.13C475.92,182.44,506.13,179.12,511.01,178.66
			 M519.42,164.83l-9.61,0.89c-9.47,0.88-42.14,6.07-64.75,35.92c-9.61,12.69-15.54,27.31-17.65,43.45
			c-1.42,10.89-0.73,19.84,0.1,25.42l0.9,6.1l5.29,3.16l15.13,9.03l13.48,8.05l5.91,3.53l6.24-2.91
			c10.52-4.9,36.35-19.8,49.05-52.23c12.67-32.34,3.89-60.76-0.47-71.48L519.42,164.83L519.42,164.83z"/>
	</g>
</g>
<g>
	<g>
		<path class="st3" d="M334.68,275.94c-6.29-5.61-26.93-26.47-28.5-59.58c-1.65-34.75,18.57-57.91,24.8-64.18l3.4-3.42l4.26,2.27
			c9.53,5.07,32.79,20.18,43.05,50.9c10.29,30.8,0.7,56.91-3.9,66.7l-1.46,3.12l-39.35,6.24L334.68,275.94z"/>
		<path class="st3" d="M335.6,156.77c5.22,2.78,29.69,16.51,39.94,47.22c10.29,30.8-1.12,56.55-3.62,61.88
			c-10.97,1.74-21.94,3.48-32.91,5.22c-3.88-3.46-24.8-22.79-26.33-55.04C311.07,182.16,332.14,160.25,335.6,156.77 M333.19,140.76
			l-6.8,6.84c-6.71,6.75-28.46,31.66-26.69,69.07c0.75,15.89,5.57,30.92,14.3,44.67c5.89,9.27,12.15,15.7,16.37,19.46l4.6,4.1
			l6.09-0.97l15.28-2.42l17.63-2.8l6.8-1.08l2.93-6.23c4.93-10.5,15.21-38.5,4.18-71.52c-11-32.94-35.95-49.14-46.17-54.58
			L333.19,140.76L333.19,140.76z"/>
	</g>
</g>
<g>
	<g>
		<path class="st3" d="M254.6,338.4c-12.17,0-35.68-2.68-56.46-20.62c-26.34-22.73-29.2-53.34-29.46-62.18l-0.14-4.82l4.58-1.53
			c6.19-2.06,16.18-4.53,28.68-4.53c13.27,0,26.01,2.81,37.88,8.36c29.42,13.75,41.75,38.68,45.68,48.76l1.25,3.21l-22.57,32.84
			l-3.07,0.26C258.89,338.32,256.81,338.4,254.6,338.4C254.6,338.4,254.6,338.4,254.6,338.4z"/>
		<path class="st3" d="M201.8,251.23c10.23,0,22.44,1.82,35.12,7.75c29.42,13.75,40.23,39.75,42.38,45.24
			c-6.29,9.15-12.58,18.31-18.87,27.46c-1.06,0.09-3.07,0.23-5.83,0.23c-10.77,0-32.76-2.25-52.21-19.04
			c-25.69-22.17-27.07-52.54-27.21-57.44C178.37,254.36,188.38,251.23,201.8,251.23 M201.8,238.23c-13.37,0-24.1,2.64-30.74,4.86
			l-9.15,3.06l0.28,9.65c0.27,9.51,3.36,42.44,31.71,66.91c22.38,19.32,47.64,22.2,60.71,22.2c2.39,0,4.65-0.09,6.91-0.28l6.14-0.51
			l3.49-5.08l8.97-13.04l9.91-14.42l3.9-5.68l-2.5-6.42c-4.22-10.81-17.44-37.54-48.98-52.29
			C229.7,241.25,216.03,238.23,201.8,238.23L201.8,238.23z"/>
	</g>
</g>
<g>
	<g>
		<path class="st4" d="M247.61,542.39l85.3-201.15h120.63L304.26,638.19v166.46H190.95V638.19L42,341.24h119.99L247.61,542.39z"/>
	</g>
</g>
<g>
	<path class="st5" d="M346.32,722.67c0-8.7,1.43-16.39,4.3-23.08s6.98-11.84,12.33-15.48c5.36-3.64,11.59-5.45,18.7-5.45
		c8.96,0,15.97,3.03,21.01,9.07l0.95-7.48h24.35v82.83c0,7.59-1.76,14.18-5.29,19.77c-3.53,5.59-8.63,9.9-15.32,12.89
		c-6.68,2.99-14.43,4.49-23.23,4.49c-6.31,0-12.43-1.19-18.34-3.58c-5.92-2.39-10.44-5.49-13.57-9.31l11.22-15.76
		c4.99,5.89,11.56,8.83,19.73,8.83c11.88,0,17.82-6.1,17.82-18.3v-2.71c-5.15,5.68-11.64,8.52-19.49,8.52
		c-10.5,0-18.99-4.02-25.46-12.06c-6.47-8.03-9.71-18.79-9.71-32.26V722.67z M373.21,724.34c0,7.05,1.33,12.64,3.98,16.75
		c2.65,4.11,6.37,6.17,11.14,6.17c5.78,0,10-1.94,12.65-5.81v-36.2c-2.6-3.93-6.76-5.89-12.49-5.89c-4.77,0-8.51,2.14-11.22,6.41
		S373.21,716.22,373.21,724.34z"/>
	<path class="st5" d="M440.05,722.67c0-8.7,1.43-16.39,4.3-23.08s6.98-11.84,12.33-15.48c5.36-3.64,11.59-5.45,18.7-5.45
		c8.96,0,15.97,3.03,21.01,9.07l0.95-7.48h24.35v82.83c0,7.59-1.76,14.18-5.29,19.77s-8.63,9.9-15.32,12.89
		c-6.68,2.99-14.43,4.49-23.23,4.49c-6.31,0-12.43-1.19-18.34-3.58c-5.92-2.39-10.44-5.49-13.57-9.31l11.22-15.76
		c4.99,5.89,11.56,8.83,19.73,8.83c11.88,0,17.82-6.1,17.82-18.3v-2.71c-5.15,5.68-11.64,8.52-19.49,8.52
		c-10.5,0-18.99-4.02-25.46-12.06c-6.47-8.03-9.71-18.79-9.71-32.26V722.67z M466.95,724.34c0,7.05,1.33,12.64,3.98,16.75
		c2.65,4.11,6.37,6.17,11.14,6.17c5.78,0,10-1.94,12.65-5.81v-36.2c-2.6-3.93-6.76-5.89-12.49-5.89c-4.77,0-8.51,2.14-11.22,6.41
		S466.95,716.22,466.95,724.34z"/>
	<path class="st5" d="M533.55,722.67c0-13.63,2.94-24.38,8.83-32.23c5.89-7.85,14.11-11.78,24.67-11.78
		c7.69,0,14.16,3.03,19.42,9.07v-43.6h26.89v122.22h-24.11l-1.35-9.23c-5.52,7.21-12.52,10.82-21.01,10.82
		c-10.24,0-18.35-3.93-24.35-11.78S533.55,737.15,533.55,722.67z M560.36,724.34c0,15.28,4.46,22.92,13.37,22.92
		c5.94,0,10.18-2.5,12.73-7.48v-32.78c-2.44-5.09-6.63-7.64-12.57-7.64c-8.28,0-12.76,6.68-13.45,20.05L560.36,724.34z"/>
	<path class="st5" d="M680.67,704.53l-8.83-0.64c-8.43,0-13.85,2.65-16.23,7.96v54.51h-26.82v-86.1h25.14l0.88,11.06
		c4.51-8.43,10.8-12.65,18.86-12.65c2.86,0,5.36,0.32,7.48,0.95L680.67,704.53z"/>
	<path class="st5" d="M736.45,766.36c-0.95-1.75-1.8-4.33-2.55-7.72c-4.93,6.21-11.83,9.31-20.69,9.31
		c-8.12,0-15.01-2.45-20.69-7.36c-5.68-4.91-8.51-11.07-8.51-18.5c0-9.34,3.45-16.39,10.34-21.17c6.9-4.77,16.92-7.16,30.08-7.16
		h8.28v-4.56c0-7.94-3.42-11.91-10.26-11.91c-6.37,0-9.55,3.14-9.55,9.44h-26.82c0-8.32,3.54-15.08,10.62-20.27
		c7.08-5.19,16.11-7.79,27.09-7.79c10.98,0,19.65,2.68,26.02,8.04s9.63,12.71,9.79,22.04v38.11c0.11,7.9,1.33,13.95,3.66,18.14v1.35
		H736.45z M719.66,748.85c3.34,0,6.11-0.72,8.32-2.15c2.2-1.43,3.78-3.05,4.73-4.85v-13.77h-7.8c-9.34,0-14,4.19-14,12.57
		c0,2.44,0.82,4.41,2.47,5.93C715.02,748.09,717.12,748.85,719.66,748.85z"/>
	<path class="st5" d="M819.52,742.17c0-2.28-1.19-4.11-3.58-5.49c-2.39-1.38-6.92-2.81-13.61-4.3c-6.68-1.49-12.2-3.43-16.55-5.85
		c-4.35-2.41-7.67-5.34-9.95-8.79c-2.28-3.45-3.42-7.4-3.42-11.85c0-7.91,3.26-14.41,9.79-19.54c6.52-5.12,15.07-7.68,25.62-7.68
		c11.35,0,20.48,2.57,27.37,7.72c6.9,5.15,10.34,11.91,10.34,20.29h-26.89c0-6.9-3.63-10.34-10.9-10.34c-2.81,0-5.17,0.78-7.08,2.35
		c-1.91,1.56-2.86,3.51-2.86,5.85c0,2.39,1.17,4.33,3.5,5.81c2.33,1.49,6.06,2.7,11.18,3.66c5.12,0.95,9.62,2.1,13.49,3.42
		c12.94,4.46,19.42,12.44,19.42,23.95c0,7.85-3.49,14.24-10.46,19.18s-16.01,7.4-27.09,7.4c-7.37,0-13.95-1.33-19.73-3.98
		c-5.78-2.65-10.29-6.26-13.53-10.82c-3.24-4.56-4.85-9.36-4.85-14.4h25.06c0.11,3.98,1.43,6.88,3.98,8.71
		c2.55,1.83,5.81,2.74,9.79,2.74c3.66,0,6.41-0.74,8.23-2.23C818.61,746.49,819.52,744.55,819.52,742.17z"/>
	<path class="st5" d="M886.2,766.36h-26.89v-86.1h26.89V766.36z"/>
	<path class="st5" d="M931,766.36h-26.89V644.14H931V766.36z"/>
	<circle class="st5" cx="873.1" cy="656.1" r="16.3"/>
</g>
</svg>
